<svg version="1.1" id="Layer_1" xmlns="http://www.w3.org/2000/svg" xmlns:xlink="http://www.w3.org/1999/xlink" x="0px" y="0px"
	 width="100%" viewBox="0 0 750 228" enable-background="new 0 0 750 228" xml:space="preserve">
<path fill="#000000" opacity="1.000000" stroke="none" 
	d="
M223.000000,229.000000 
	C149.016418,229.000000 75.032822,229.000000 1.024619,229.000000 
	C1.024619,153.033279 1.024619,77.066544 1.024619,1.093664 
	C1.133361,1.066537 1.266722,1.004105 1.400084,1.004103 
	C251.177994,0.999984 500.955902,1.000000 750.866943,1.000000 
	C750.866943,76.894218 750.866943,152.788757 750.866943,229.000000 
	C578.644165,229.000000 406.288116,229.000000 233.153229,228.689087 
	C234.175598,224.751373 231.455490,222.793243 229.063751,221.808075 
	C227.579300,221.196640 224.614471,222.159317 223.437164,223.444366 
	C222.448257,224.523773 223.083694,227.091293 223.000000,229.000000 
M620.022766,34.018230 
	C620.022766,34.018230 620.032593,33.935001 619.234802,34.321175 
	C619.160767,34.811253 619.022095,35.301304 619.021912,35.791409 
	C619.006653,74.500008 618.995361,113.208626 619.035889,151.917191 
	C619.036926,152.910187 619.615540,153.902588 620.870483,154.939728 
	C630.602478,154.924133 640.334534,154.908524 650.822632,154.496216 
	C650.809021,138.787155 650.795410,123.078094 650.950012,106.549316 
	C651.671265,103.661530 652.188843,100.703255 653.158508,97.901451 
	C654.873657,92.945374 660.417725,88.943932 665.429565,89.151062 
	C670.665955,89.367485 672.568970,93.287735 673.941223,97.590324 
	C674.343506,98.851601 674.793335,100.097733 675.222412,102.242310 
	C675.153809,119.294708 675.077332,136.347092 675.056152,153.399536 
	C675.055542,153.899460 675.638428,154.400101 676.891968,154.941940 
	C686.615295,154.918549 696.338623,154.895172 706.851929,154.525528 
	C706.901489,136.198196 706.963562,117.870865 706.959106,99.543541 
	C706.958923,98.733994 706.351624,97.924591 705.987732,96.212357 
	C706.306274,84.667229 702.123962,74.792320 691.811218,69.705750 
	C677.038940,62.419582 662.430237,62.307384 649.982178,77.855240 
	C649.982178,74.677391 649.940735,73.065254 649.988892,71.455811 
	C650.311340,60.681499 650.706299,49.908882 650.933350,39.132668 
	C650.969299,37.427437 650.275085,35.706829 649.535889,33.223293 
	C640.835144,33.149776 632.134399,33.037422 623.433777,33.048985 
	C622.268433,33.050529 621.103882,33.678242 620.022766,34.018230 
M421.017670,166.009506 
	C421.017670,166.009506 421.029358,166.079483 421.815826,165.673492 
	C421.877289,155.681015 421.903839,145.688110 422.021332,135.696289 
	C422.056885,132.672760 421.094971,129.361862 424.275665,127.053940 
	C424.741516,126.715912 424.867462,124.881615 424.644043,124.771957 
	C419.227631,122.113556 422.504150,117.341621 422.180847,113.677490 
	C421.785278,109.194221 422.726593,104.592995 423.764618,99.720795 
	C425.010803,96.830673 426.428650,94.000237 427.459717,91.035309 
	C428.746613,87.334946 429.715027,83.523827 430.820923,79.760529 
	C430.177399,79.478088 429.533875,79.195648 428.890320,78.913208 
	C426.609650,81.565498 424.328949,84.217796 422.005341,85.949944 
	C422.003815,66.803749 422.023560,47.657482 421.958160,28.511501 
	C421.953186,27.059086 421.343048,25.608738 420.085571,24.017839 
	C394.060730,24.012045 368.035828,23.989355 342.011139,24.054665 
	C340.817749,24.057659 339.626282,24.851849 338.317902,25.657131 
	C338.270050,26.046886 338.222229,26.436642 338.021545,27.646006 
	C338.012665,40.962116 337.982391,54.278255 337.999115,67.594330 
	C338.040314,100.381866 338.103119,133.169373 338.355469,166.821762 
	C365.268372,166.880096 392.181274,166.945450 419.094208,166.955780 
	C419.758484,166.956039 420.423065,166.346832 421.017670,166.009506 
M452.594910,70.111343 
	C452.292938,70.264000 452.125397,70.508705 451.771423,71.464142 
	C448.376526,74.548523 443.643433,77.002663 441.838165,80.835724 
	C436.466583,92.241013 431.158264,103.982910 434.865082,117.272125 
	C435.126343,118.208672 435.024200,119.261017 435.008453,120.258217 
	C434.767365,135.519608 445.101196,148.184357 458.378906,152.802399 
	C476.952393,159.262360 495.564667,158.616150 513.639343,150.617477 
	C513.639343,143.341141 513.639343,136.424316 513.639343,128.807816 
	C510.983124,129.668991 508.814423,130.293869 506.701508,131.070496 
	C496.689636,134.750366 486.460968,136.294586 475.915253,133.975174 
	C469.124390,132.481567 464.615936,125.840736 465.881775,118.986389 
	C467.427887,118.986389 469.063904,118.986671 470.699890,118.986343 
	C485.698944,118.983299 500.698029,118.970612 515.697083,118.987213 
	C517.972351,118.989731 520.128418,119.109886 519.980774,115.783157 
	C519.387878,102.422028 520.076294,88.891022 510.015594,77.839241 
	C503.168854,70.317986 494.925812,66.115166 485.033020,65.761635 
	C477.258026,65.483780 469.440582,66.408943 461.640778,66.772873 
	C461.159149,66.795341 460.666565,66.582848 460.660553,65.930656 
	C463.445435,62.213295 467.571655,60.631336 471.464417,62.397743 
	C475.536407,64.245461 477.207428,62.754360 479.080688,60.022556 
	C475.873505,54.773300 471.196899,54.026848 466.108368,55.404709 
	C458.709412,57.408184 453.575287,61.731461 453.005798,69.976341 
	C453.005798,69.976341 453.004181,69.899490 452.594910,70.111343 
M478.172546,199.417297 
	C478.172546,200.530090 478.172546,201.642883 478.172546,202.838470 
	C479.079803,202.902679 479.735626,202.989670 480.391479,202.989731 
	C549.409180,202.997040 618.426941,203.002411 687.444641,202.959656 
	C688.598511,202.958954 689.752075,202.369095 690.888062,201.434891 
	C690.552856,200.956009 690.217651,200.477112 689.418579,199.308105 
	C687.602112,199.205124 685.785767,199.013611 683.969238,199.012390 
	C655.699890,198.993362 627.430542,198.984207 599.161194,199.002441 
	C559.086426,199.028275 519.011658,199.078537 478.172546,199.417297 
M264.138092,199.039749 
	C195.199081,199.025238 126.260078,199.005508 57.321091,199.042419 
	C56.209663,199.043015 55.098602,199.736664 54.002159,200.683945 
	C54.006363,201.068909 54.010567,201.453888 53.390530,202.281967 
	C54.944698,202.521729 56.498760,202.970367 58.053055,202.971176 
	C125.819244,203.006470 193.585449,203.002167 261.351654,203.002625 
	C262.807556,203.002640 264.263458,203.002625 266.434387,203.002625 
	C265.845734,201.320038 265.463013,200.226089 264.138092,199.039749 
M325.808044,154.427216 
	C325.841553,135.320877 325.875092,116.214539 325.936859,96.276581 
	C325.620331,94.156387 325.759247,91.827866 324.902496,89.954781 
	C322.258209,84.173798 320.371124,77.453148 316.126343,73.118156 
	C306.593262,63.382507 281.103668,61.547150 271.959076,73.491417 
	C270.625336,75.233528 268.722687,76.540108 266.654877,78.442329 
	C265.769592,76.114609 264.994812,74.631798 264.645660,73.054741 
	C263.623505,68.437798 261.139679,66.403259 256.184509,66.920288 
	C251.900375,67.367302 247.523178,67.187645 243.204788,66.955864 
	C239.860291,66.776352 238.951279,68.105751 238.962830,71.296074 
	C239.058167,97.613754 239.050583,123.932037 238.974411,150.249847 
	C238.964691,153.607391 240.054688,155.103043 243.589127,155.026871 
	C252.080109,154.843979 260.576385,154.906036 269.741058,154.388672 
	C269.795715,139.296249 269.850372,124.203835 270.029968,108.302002 
	C270.694275,105.072990 271.239014,101.813629 272.049377,98.621704 
	C273.446655,93.118149 278.266083,89.612381 284.278351,89.524414 
	C288.880524,89.457077 292.312714,92.350304 293.777008,98.117241 
	C294.540558,101.124352 294.934601,104.301521 294.961182,107.406448 
	C295.082123,121.545006 295.111969,135.686325 294.948395,149.824020 
	C294.903381,153.714661 296.214935,155.161713 300.145111,155.046814 
	C308.455658,154.803864 316.776306,154.906631 325.808044,154.427216 
M37.133530,41.466213 
	C37.087120,78.442719 37.034702,115.419220 37.032600,152.395721 
	C37.032555,153.230255 37.603386,154.064835 38.855927,154.939346 
	C56.144444,154.818237 73.433197,154.723724 90.721405,154.568619 
	C108.342598,154.410522 126.609505,140.688477 125.932457,121.802246 
	C125.516724,110.205490 120.647377,101.182571 109.869469,97.102318 
	C108.740379,96.674858 107.668549,96.096184 106.226784,95.428703 
	C107.084801,94.790138 107.422173,94.395119 107.846359,94.244347 
	C119.511757,90.097847 124.401756,77.786484 123.824654,69.622971 
	C122.830688,55.562653 115.973892,47.114189 104.098267,44.347729 
	C95.712410,42.394226 86.968956,41.472492 78.346039,41.156128 
	C64.886032,40.662292 51.392879,41.071774 37.133530,41.466213 
M156.743073,149.836853 
	C163.418594,154.699631 171.268738,156.349091 179.149170,156.746155 
	C192.721924,157.430023 205.451492,154.773361 215.292740,144.203003 
	C222.247879,136.732559 224.696381,127.606972 226.341965,117.762581 
	C229.834869,96.866882 218.211792,71.015755 194.327759,67.001175 
	C189.717117,66.226189 184.970200,66.285080 180.293488,65.875648 
	C166.855957,64.699249 156.281555,70.043472 147.942337,80.225838 
	C137.264206,93.264084 137.426666,108.678200 139.650513,123.992722 
	C141.186981,134.573700 147.030975,143.295563 156.743073,149.836853 
M533.931152,129.261246 
	C536.172302,138.622650 541.477173,146.305038 549.778503,150.529190 
	C566.731873,159.155930 584.248474,159.442169 601.502075,150.701416 
	C602.752319,150.068008 604.620789,148.887634 604.656372,147.905533 
	C604.923340,140.541443 604.801697,133.163269 604.801697,125.612549 
	C597.847900,127.802788 591.837524,129.990356 585.672058,131.574356 
	C574.098206,134.547821 567.335815,131.389862 564.585876,122.167534 
	C562.290955,114.471214 562.449402,106.804619 565.063538,99.225922 
	C567.333252,92.645721 572.719849,88.971535 579.645264,89.857712 
	C584.527344,90.482422 589.412231,91.617180 594.083252,93.165604 
	C597.041260,94.146187 598.775085,94.066597 599.972290,91.029739 
	C602.099731,85.633423 604.457642,80.321617 606.364685,74.850914 
	C606.694458,73.904984 605.607788,71.662521 604.612305,71.179420 
	C592.427979,65.266594 579.421692,64.336533 566.287903,66.147217 
	C556.852356,67.448036 548.406250,71.895012 542.473328,79.309418 
	C530.774170,93.929939 530.908630,111.020004 533.931152,129.261246 
M275.000336,197.562561 
	C275.004913,201.872635 274.835876,206.194427 275.125336,210.485291 
	C275.206696,211.691650 276.462067,213.623611 277.471375,213.836487 
	C286.319031,215.702759 294.659668,207.139191 292.872681,198.258987 
	C291.522583,191.549866 286.197693,188.246841 278.306305,188.970627 
	C272.336639,189.518127 276.061890,194.042114 275.000336,197.562561 
M342.504456,210.011093 
	C337.716766,210.759155 335.249878,207.829056 335.335754,203.871872 
	C335.415619,200.190933 336.231903,195.383636 338.647644,193.225739 
	C340.939392,191.178604 345.725525,191.923935 349.413544,191.435364 
	C344.050812,187.205032 338.909973,187.406876 334.904083,191.599945 
	C331.472473,195.191895 332.015472,199.490112 331.994019,203.776703 
	C331.972534,208.065231 333.997192,211.158005 337.836761,212.729752 
	C341.855164,214.374710 346.721802,214.708801 349.373596,211.348160 
	C351.294708,208.913498 350.727173,204.515121 351.358551,200.413361 
	C347.364197,200.898468 344.846497,201.204224 342.649933,201.470993 
	C344.644043,203.204468 347.265930,204.386902 347.707733,206.123856 
	C348.376587,208.753616 346.214325,210.242096 342.504456,210.011093 
M422.486816,203.038895 
	C421.384155,206.536865 420.281464,210.034821 419.178772,213.532776 
	C419.558594,213.767883 419.938446,214.002991 420.318268,214.238098 
	C421.201508,213.313782 422.391052,212.536545 422.917297,211.440796 
	C425.890015,205.250580 426.108887,205.097992 433.338257,206.609055 
	C434.992645,208.943741 433.425507,213.575775 439.372345,213.733246 
	C436.682220,205.588272 434.241608,197.989822 431.576630,190.470901 
	C431.325348,189.761917 429.569580,189.074066 428.681885,189.246994 
	C427.796204,189.419540 426.774719,190.555878 426.420105,191.498184 
	C425.082733,195.052353 423.992645,198.699539 422.486816,203.038895 
M469.403198,211.221008 
	C466.062744,211.025452 462.722321,210.829880 458.320129,210.572174 
	C458.320129,203.151764 458.320129,196.197067 458.320129,188.548996 
	C456.949158,189.508514 456.468658,189.684372 456.464478,189.870911 
	C456.300629,197.167053 456.161774,204.463974 456.088684,211.761490 
	C456.082855,212.346024 456.419525,213.100967 456.853363,213.493134 
	C458.467468,214.952103 467.762665,213.743301 469.403198,211.221008 
M396.998779,205.416687 
	C396.998779,208.107010 396.998779,210.797333 396.998779,213.487656 
	C397.603210,213.502151 398.207642,213.516647 398.812042,213.531143 
	C401.829865,206.450546 398.473480,198.528549 400.669861,191.388763 
	C402.832642,191.053970 404.730530,190.760193 406.628448,190.466400 
	C406.558258,190.143875 406.488068,189.821365 406.417877,189.498840 
	C400.838654,189.498840 395.259460,189.498840 388.317719,189.498840 
	C396.998779,192.692963 396.998749,192.692963 396.998749,201.451126 
	C396.998749,202.449448 396.998779,203.447784 396.998779,205.416687 
M369.045563,191.057037 
	C369.045563,198.526077 369.045563,205.995132 369.045563,214.072403 
	C370.450043,213.339035 371.199127,213.139664 371.206329,212.916412 
	C371.449097,205.376801 371.623230,197.834915 371.696472,190.292297 
	C371.696686,190.273438 370.067108,190.238739 369.045563,191.057037 
M310.995117,202.477768 
	C310.995117,206.148712 310.995117,209.819656 310.995117,214.650894 
	C314.621643,210.577484 314.931183,193.026154 311.317169,189.171707 
	C311.209839,193.279602 311.102478,197.387497 310.995117,202.477768 
M651.039307,211.860794 
	C652.784607,209.379395 652.169617,207.035843 649.617981,206.097122 
	C648.183594,205.569427 645.335510,206.223602 644.533936,207.349182 
	C643.647644,208.593719 644.372253,210.985367 644.395264,212.877426 
	C646.601746,212.817886 648.808167,212.758362 651.039307,211.860794 
z"/>
<path fill="#F5F5F5" opacity="1.000000" stroke="none" 
	d="
M223.454102,229.000000 
	C223.083694,227.091293 222.448257,224.523773 223.437164,223.444366 
	C224.614471,222.159317 227.579300,221.196640 229.063751,221.808075 
	C231.455490,222.793243 234.175598,224.751373 232.687195,228.689087 
	C229.969406,229.000000 226.938812,229.000000 223.454102,229.000000 
z"/>
<path fill="#020F3F" opacity="1.000000" stroke="none" 
	d="
M37.913773,41.098511 
	C51.392879,41.071774 64.886032,40.662292 78.346039,41.156128 
	C86.968956,41.472492 95.712410,42.394226 104.098267,44.347729 
	C115.973892,47.114189 122.830688,55.562653 123.824654,69.622971 
	C124.401756,77.786484 119.511757,90.097847 107.846359,94.244347 
	C107.422173,94.395119 107.084801,94.790138 106.226784,95.428703 
	C107.668549,96.096184 108.740379,96.674858 109.869469,97.102318 
	C120.647377,101.182571 125.516724,110.205490 125.932457,121.802246 
	C126.609505,140.688477 108.342598,154.410522 90.721405,154.568619 
	C73.433197,154.723724 56.144444,154.818237 38.415726,154.459747 
	C37.954941,116.352936 37.934357,78.725723 37.913773,41.098511 
M69.001076,124.420891 
	C69.098083,132.729568 67.930008,132.129059 76.355400,131.915741 
	C79.593521,131.833740 82.792137,130.659622 86.033714,130.138382 
	C91.162079,129.313736 93.117050,125.637596 93.926147,121.196121 
	C94.713646,116.873161 92.001411,110.658241 87.981796,109.707886 
	C82.485397,108.408379 76.656029,108.427589 70.956772,108.206406 
	C70.348495,108.182800 69.162224,110.295776 69.092751,111.467903 
	C68.856812,115.448235 69.001709,119.451149 69.001076,124.420891 
M83.078766,84.450905 
	C83.816460,84.066734 84.514008,83.502670 85.298370,83.327660 
	C90.297554,82.212227 91.845047,78.487076 91.908455,74.071266 
	C91.964188,70.190071 87.881721,65.590881 83.801216,65.208725 
	C79.102470,64.768684 74.330872,65.106522 69.028603,65.106522 
	C69.028603,71.281723 68.903183,76.908958 69.159782,82.518715 
	C69.199638,83.390106 70.944603,84.827316 71.971367,84.892311 
	C75.426132,85.111000 78.912636,84.828094 83.078766,84.450905 
z"/>
<path fill="#E8955D" opacity="1.000000" stroke="none" 
	d="
M338.174377,26.826405 
	C338.222229,26.436642 338.270050,26.046886 338.999268,25.452843 
	C365.453735,25.193382 391.226837,25.138210 417.232544,25.326458 
	C418.573853,25.735882 419.682495,25.901888 420.850952,26.473982 
	C420.882416,28.246134 420.854034,29.612200 420.581238,31.313126 
	C420.227173,33.631435 420.022675,35.614834 420.021759,37.598335 
	C420.002899,77.552078 420.010315,117.505829 420.004578,157.459579 
	C420.003571,164.372604 419.413727,164.981232 412.682007,164.983994 
	C390.873932,164.992966 369.065826,164.984695 347.257751,164.986649 
	C339.734589,164.987320 339.018860,164.295898 339.016113,156.714661 
	C339.006165,129.246460 338.909027,101.777725 339.053436,74.310287 
	C339.131134,59.533104 339.670502,44.758648 339.865143,29.981178 
	C339.878906,28.937193 338.764282,27.878345 338.174377,26.826405 
M389.984802,90.024376 
	C396.522491,89.695129 403.060181,89.365883 409.724243,89.030273 
	C409.724243,81.462288 409.724243,74.404877 409.724243,66.998009 
	C404.154816,66.998009 398.857727,66.884773 393.568085,67.034790 
	C389.531708,67.149269 387.817108,65.426552 387.971771,61.402298 
	C388.128418,57.327633 388.006348,53.242260 388.006348,49.293026 
	C386.957153,49.121517 386.634613,49.024498 386.311584,49.022793 
	C382.816803,49.004383 379.321960,48.995808 375.827118,48.994556 
	C369.508179,48.992302 367.818939,50.572258 365.937836,56.718609 
	C363.987366,63.091484 361.407776,69.211967 354.974091,72.584717 
	C353.397125,73.411415 351.661133,74.116112 350.396271,75.301590 
	C349.304138,76.325188 348.244049,77.900909 348.107239,79.322746 
	C347.778778,82.736946 348.000977,86.204124 348.000977,90.120956 
	C351.568512,90.120956 354.631042,90.120956 359.000732,90.120956 
	C359.000732,104.490044 358.493103,118.398201 359.146149,132.251663 
	C359.776001,145.613663 363.905579,152.483810 377.642761,156.024460 
	C386.737854,158.368637 395.529999,156.186737 404.216431,154.225281 
	C412.118896,152.440842 412.012909,151.969879 412.013000,143.977737 
	C412.013031,141.980606 412.168152,139.968292 411.978424,137.989197 
	C411.422272,132.186356 409.910156,131.050247 404.253265,131.999084 
	C402.818451,132.239746 401.411530,132.641769 399.982910,132.924942 
	C393.388855,134.232071 389.078094,130.751602 389.029175,123.120941 
	C389.043884,112.138306 389.058594,101.155670 389.984802,90.024376 
z"/>
<path fill="#020F3F" opacity="1.000000" stroke="none" 
	d="
M675.221436,101.350792 
	C674.793335,100.097733 674.343506,98.851601 673.941223,97.590324 
	C672.568970,93.287735 670.665955,89.367485 665.429565,89.151062 
	C660.417725,88.943932 654.873657,92.945374 653.158508,97.901451 
	C652.188843,100.703255 651.671265,103.661530 650.672974,107.286911 
	C650.286194,123.647316 650.176392,139.270126 650.066528,154.892929 
	C640.334534,154.908524 630.602478,154.924133 620.425659,154.458221 
	C619.998047,113.962799 620.015320,73.948898 620.032593,33.935001 
	C620.032593,33.935001 620.022766,34.018230 620.453491,34.009369 
	C630.562256,33.998116 640.240295,33.995728 649.918396,33.993332 
	C650.275085,35.706829 650.969299,37.427437 650.933350,39.132668 
	C650.706299,49.908882 650.311340,60.681499 649.988892,71.455811 
	C649.940735,73.065254 649.982178,74.677391 649.982178,77.855240 
	C662.430237,62.307384 677.038940,62.419582 691.811218,69.705750 
	C702.123962,74.792320 706.306274,84.667229 705.998413,97.124756 
	C706.026672,116.982033 706.044312,135.926910 706.061951,154.871796 
	C696.338623,154.895172 686.615295,154.918549 676.446106,154.461548 
	C676.002869,138.379669 676.032776,122.778099 675.973206,107.176857 
	C675.965820,105.233910 675.483643,103.292763 675.221436,101.350792 
z"/>
<path fill="#020F3F" opacity="1.000000" stroke="none" 
	d="
M269.070526,154.869263 
	C260.576385,154.906036 252.080109,154.843979 243.589127,155.026871 
	C240.054688,155.103043 238.964691,153.607391 238.974411,150.249847 
	C239.050583,123.932037 239.058167,97.613754 238.962830,71.296074 
	C238.951279,68.105751 239.860291,66.776352 243.204788,66.955864 
	C247.523178,67.187645 251.900375,67.367302 256.184509,66.920288 
	C261.139679,66.403259 263.623505,68.437798 264.645660,73.054741 
	C264.994812,74.631798 265.769592,76.114609 266.654877,78.442329 
	C268.722687,76.540108 270.625336,75.233528 271.959076,73.491417 
	C281.103668,61.547150 306.593262,63.382507 316.126343,73.118156 
	C320.371124,77.453148 322.258209,84.173798 324.902496,89.954781 
	C325.759247,91.827866 325.620331,94.156387 325.578125,96.928413 
	C325.177185,116.676033 325.134979,135.771820 325.092804,154.867584 
	C316.776306,154.906631 308.455658,154.803864 300.145111,155.046814 
	C296.214935,155.161713 294.903381,153.714661 294.948395,149.824020 
	C295.111969,135.686325 295.082123,121.545006 294.961182,107.406448 
	C294.934601,104.301521 294.540558,101.124352 293.777008,98.117241 
	C292.312714,92.350304 288.880524,89.457077 284.278351,89.524414 
	C278.266083,89.612381 273.446655,93.118149 272.049377,98.621704 
	C271.239014,101.813629 270.694275,105.072990 269.665894,108.981445 
	C269.224701,124.730339 269.147614,139.799805 269.070526,154.869263 
z"/>
<path fill="#03103F" opacity="1.000000" stroke="none" 
	d="
M460.179077,66.479668 
	C460.666565,66.582848 461.159149,66.795341 461.640778,66.772873 
	C469.440582,66.408943 477.258026,65.483780 485.033020,65.761635 
	C494.925812,66.115166 503.168854,70.317986 510.015594,77.839241 
	C520.076294,88.891022 519.387878,102.422028 519.980774,115.783157 
	C520.128418,119.109886 517.972351,118.989731 515.697083,118.987213 
	C500.698029,118.970612 485.698944,118.983299 470.699890,118.986343 
	C469.063904,118.986671 467.427887,118.986389 465.881775,118.986389 
	C464.615936,125.840736 469.124390,132.481567 475.915253,133.975174 
	C486.460968,136.294586 496.689636,134.750366 506.701508,131.070496 
	C508.814423,130.293869 510.983124,129.668991 513.639343,128.807816 
	C513.639343,136.424316 513.639343,143.341141 513.639343,150.617477 
	C495.564667,158.616150 476.952393,159.262360 458.378906,152.802399 
	C445.101196,148.184357 434.767365,135.519608 435.008453,120.258217 
	C435.024200,119.261017 435.126343,118.208672 434.865082,117.272125 
	C431.158264,103.982910 436.466583,92.241013 441.838165,80.835724 
	C443.643433,77.002663 448.376526,74.548523 452.262634,71.162025 
	C452.837250,70.539764 452.920715,70.219627 453.004150,69.899490 
	C453.004181,69.899490 453.005798,69.976341 453.208008,70.311966 
	C455.270630,69.766548 457.131073,68.885490 459.310791,67.964920 
	C459.809296,67.451149 459.988525,66.976906 460.212555,66.521652 
	C460.257355,66.540642 460.179077,66.479668 460.179077,66.479668 
M467.648041,92.789253 
	C466.880035,94.865631 466.112030,96.942001 465.007538,99.928108 
	C473.877045,99.928108 481.775482,99.993622 489.667786,99.804222 
	C490.301758,99.789001 491.633881,97.481514 491.391113,97.147110 
	C488.853668,93.652000 486.060455,90.342552 482.618866,86.521706 
	C480.336060,86.402481 477.693787,85.499611 475.852997,86.343994 
	C472.944763,87.678024 470.574158,90.184029 467.648041,92.789253 
z"/>
<path fill="#030F3F" opacity="1.000000" stroke="none" 
	d="
M156.433655,149.646423 
	C147.030975,143.295563 141.186981,134.573700 139.650513,123.992722 
	C137.426666,108.678200 137.264206,93.264084 147.942337,80.225838 
	C156.281555,70.043472 166.855957,64.699249 180.293488,65.875648 
	C184.970200,66.285080 189.717117,66.226189 194.327759,67.001175 
	C218.211792,71.015755 229.834869,96.866882 226.341965,117.762581 
	C224.696381,127.606972 222.247879,136.732559 215.292740,144.203003 
	C205.451492,154.773361 192.721924,157.430023 179.149170,156.746155 
	C171.268738,156.349091 163.418594,154.699631 156.433655,149.646423 
M175.046402,131.588959 
	C182.548569,136.596603 190.958344,133.943710 193.636047,125.414871 
	C196.621582,115.905632 197.136124,106.344360 193.347412,96.789505 
	C191.009735,90.894012 187.732269,87.901184 182.808228,87.989998 
	C176.602203,88.101944 172.123749,91.382576 171.108063,98.025955 
	C170.120377,104.486168 169.681290,111.180031 170.214050,117.671776 
	C170.587036,122.216431 172.998932,126.593750 175.046402,131.588959 
z"/>
<path fill="#030F3F" opacity="1.000000" stroke="none" 
	d="
M533.893433,128.840698 
	C530.908630,111.020004 530.774170,93.929939 542.473328,79.309418 
	C548.406250,71.895012 556.852356,67.448036 566.287903,66.147217 
	C579.421692,64.336533 592.427979,65.266594 604.612305,71.179420 
	C605.607788,71.662521 606.694458,73.904984 606.364685,74.850914 
	C604.457642,80.321617 602.099731,85.633423 599.972290,91.029739 
	C598.775085,94.066597 597.041260,94.146187 594.083252,93.165604 
	C589.412231,91.617180 584.527344,90.482422 579.645264,89.857712 
	C572.719849,88.971535 567.333252,92.645721 565.063538,99.225922 
	C562.449402,106.804619 562.290955,114.471214 564.585876,122.167534 
	C567.335815,131.389862 574.098206,134.547821 585.672058,131.574356 
	C591.837524,129.990356 597.847900,127.802788 604.801697,125.612549 
	C604.801697,133.163269 604.923340,140.541443 604.656372,147.905533 
	C604.620789,148.887634 602.752319,150.068008 601.502075,150.701416 
	C584.248474,159.442169 566.731873,159.155930 549.778503,150.529190 
	C541.477173,146.305038 536.172302,138.622650 533.893433,128.840698 
z"/>
<path fill="#041035" opacity="1.000000" stroke="none" 
	d="
M689.882385,199.998230 
	C690.217651,200.477112 690.552856,200.956009 690.436768,201.722351 
	C621.535217,202.006439 553.084900,202.003357 484.634613,201.997726 
	C483.136810,201.997604 481.617340,202.103378 480.154846,201.868210 
	C479.733459,201.800461 479.476166,200.712082 479.601440,200.054749 
	C550.000305,200.011322 619.941345,200.004776 689.882385,199.998230 
z"/>
<path fill="#041035" opacity="1.000000" stroke="none" 
	d="
M54.014771,201.838852 
	C54.010567,201.453888 54.006363,201.068909 54.462013,200.349030 
	C124.903534,200.037506 194.885193,200.060913 264.895050,200.510742 
	C263.280823,201.288803 261.638641,201.946594 259.995941,201.947922 
	C194.164749,202.001007 128.333511,201.996628 62.502289,201.989334 
	C59.673111,201.989014 56.843945,201.891235 54.014771,201.838852 
z"/>
<path fill="#D59D75" opacity="1.000000" stroke="none" 
	d="
M338.097961,27.236208 
	C338.764282,27.878345 339.878906,28.937193 339.865143,29.981178 
	C339.670502,44.758648 339.131134,59.533104 339.053436,74.310287 
	C338.909027,101.777725 339.006165,129.246460 339.016113,156.714661 
	C339.018860,164.295898 339.734589,164.987320 347.257751,164.986649 
	C369.065826,164.984695 390.873932,164.992966 412.682007,164.983994 
	C419.413727,164.981232 420.003571,164.372604 420.004578,157.459579 
	C420.010315,117.505829 420.002899,77.552078 420.021759,37.598335 
	C420.022675,35.614834 420.227173,33.631435 420.648712,31.779442 
	C420.983490,76.633759 421.006409,121.356621 421.029358,166.079483 
	C421.029358,166.079483 421.017670,166.009506 420.578918,165.990814 
	C392.812531,165.967041 365.484894,165.961975 338.157227,165.956894 
	C338.103119,133.169373 338.040314,100.381866 337.999115,67.594330 
	C337.982391,54.278255 338.012665,40.962116 338.097961,27.236208 
z"/>
<path fill="#9BA3BF" opacity="1.000000" stroke="none" 
	d="
M53.702652,202.060410 
	C56.843945,201.891235 59.673111,201.989014 62.502289,201.989334 
	C128.333511,201.996628 194.164749,202.001007 259.995941,201.947922 
	C261.638641,201.946594 263.280823,201.288803 264.961121,200.275513 
	C264.999023,199.613846 265.080292,199.132141 265.080292,199.132141 
	C265.463013,200.226089 265.845734,201.320038 266.434387,203.002625 
	C264.263458,203.002625 262.807556,203.002640 261.351654,203.002625 
	C193.585449,203.002167 125.819244,203.006470 58.053055,202.971176 
	C56.498760,202.970367 54.944698,202.521729 53.702652,202.060410 
z"/>
<path fill="#9AA4BF" opacity="1.000000" stroke="none" 
	d="
M479.143646,200.091644 
	C479.476166,200.712082 479.733459,201.800461 480.154846,201.868210 
	C481.617340,202.103378 483.136810,201.997604 484.634613,201.997726 
	C553.084900,202.003357 621.535217,202.006439 690.445679,202.031982 
	C689.752075,202.369095 688.598511,202.958954 687.444641,202.959656 
	C618.426941,203.002411 549.409180,202.997040 480.391479,202.989731 
	C479.735626,202.989670 479.079803,202.902679 478.172546,202.838470 
	C478.172546,201.642883 478.172546,200.530090 478.599213,199.512573 
	C479.025879,199.607849 479.143646,200.091644 479.143646,200.091644 
z"/>
<path fill="#424B67" opacity="1.000000" stroke="none" 
	d="
M264.609192,199.085938 
	C265.080292,199.132141 264.999023,199.613846 264.932922,199.849075 
	C194.885193,200.060913 124.903534,200.037506 54.454620,200.060501 
	C55.098602,199.736664 56.209663,199.043015 57.321091,199.042419 
	C126.260078,199.005508 195.199081,199.025238 264.609192,199.085938 
z"/>
<path fill="#424B67" opacity="1.000000" stroke="none" 
	d="
M479.601440,200.054749 
	C479.143646,200.091644 479.025879,199.607849 478.981384,199.363113 
	C519.011658,199.078537 559.086426,199.028275 599.161194,199.002441 
	C627.430542,198.984207 655.699890,198.993362 683.969238,199.012390 
	C685.785767,199.013611 687.602112,199.205124 689.650513,199.653168 
	C619.941345,200.004776 550.000305,200.011322 479.601440,200.054749 
z"/>
<path fill="#0A1238" opacity="1.000000" stroke="none" 
	d="
M274.999969,197.076416 
	C276.061890,194.042114 272.336639,189.518127 278.306305,188.970627 
	C286.197693,188.246841 291.522583,191.549866 292.872681,198.258987 
	C294.659668,207.139191 286.319031,215.702759 277.471375,213.836487 
	C276.462067,213.623611 275.206696,211.691650 275.125336,210.485291 
	C274.835876,206.194427 275.004913,201.872635 274.999969,197.076416 
M277.987854,198.584320 
	C277.987854,202.604752 277.987854,206.625168 277.987854,210.779053 
	C289.471893,208.911453 292.684662,203.452560 287.351990,195.403687 
	C285.919006,193.240845 282.343933,192.497238 279.752197,191.102127 
	C279.163971,193.276443 278.575745,195.450760 277.987854,198.584320 
z"/>
<path fill="#0D1235" opacity="1.000000" stroke="none" 
	d="
M342.929626,210.008820 
	C346.214325,210.242096 348.376587,208.753616 347.707733,206.123856 
	C347.265930,204.386902 344.644043,203.204468 342.649933,201.470993 
	C344.846497,201.204224 347.364197,200.898468 351.358551,200.413361 
	C350.727173,204.515121 351.294708,208.913498 349.373596,211.348160 
	C346.721802,214.708801 341.855164,214.374710 337.836761,212.729752 
	C333.997192,211.158005 331.972534,208.065231 331.994019,203.776703 
	C332.015472,199.490112 331.472473,195.191895 334.904083,191.599945 
	C338.909973,187.406876 344.050812,187.205032 349.414124,191.438324 
	C345.725525,191.923935 340.939392,191.178604 338.647644,193.225739 
	C336.231903,195.383636 335.415619,200.190933 335.335754,203.871872 
	C335.249878,207.829056 337.716766,210.759155 342.929626,210.008820 
z"/>
<path fill="#F2F2F3" opacity="1.000000" stroke="none" 
	d="
M458.991516,68.004440 
	C457.131073,68.885490 455.270630,69.766548 453.169556,70.311111 
	C453.575287,61.731461 458.709412,57.408184 466.108368,55.404709 
	C471.196899,54.026848 475.873505,54.773300 479.080688,60.022556 
	C477.207428,62.754360 475.536407,64.245461 471.464417,62.397743 
	C467.571655,60.631336 463.445435,62.213295 460.419800,66.205162 
	C460.179077,66.479668 460.257355,66.540642 460.020416,66.686104 
	C459.519501,67.222519 459.255493,67.613480 458.991516,68.004440 
z"/>
<path fill="#11163A" opacity="1.000000" stroke="none" 
	d="
M422.648376,202.675385 
	C423.992645,198.699539 425.082733,195.052353 426.420105,191.498184 
	C426.774719,190.555878 427.796204,189.419540 428.681885,189.246994 
	C429.569580,189.074066 431.325348,189.761917 431.576630,190.470901 
	C434.241608,197.989822 436.682220,205.588272 439.372345,213.733246 
	C433.425507,213.575775 434.992645,208.943741 433.338257,206.609055 
	C426.108887,205.097992 425.890015,205.250580 422.917297,211.440796 
	C422.391052,212.536545 421.201508,213.313782 420.318268,214.238098 
	C419.938446,214.002991 419.558594,213.767883 419.178772,213.532776 
	C420.281464,210.034821 421.384155,206.536865 422.648376,202.675385 
M431.780945,201.544281 
	C431.014435,198.948410 430.247925,196.352539 429.043579,192.273911 
	C427.819885,196.493698 426.989288,199.357834 425.912720,203.070267 
	C428.249359,202.748108 429.908539,202.519348 431.780945,201.544281 
z"/>
<path fill="#FEF2DE" opacity="1.000000" stroke="none" 
	d="
M421.422607,165.876495 
	C421.006409,121.356621 420.983490,76.633759 420.893066,31.444580 
	C420.854034,29.612200 420.882416,28.246134 420.905823,26.234585 
	C420.900818,25.589100 420.855896,25.101221 420.902008,24.866367 
	C420.948120,24.631514 421.014191,24.157433 421.014191,24.157431 
	C421.343048,25.608738 421.953186,27.059086 421.958160,28.511501 
	C422.023560,47.657482 422.003815,66.803749 422.120697,86.760452 
	C422.520660,91.728241 422.805237,95.885506 423.089844,100.042778 
	C422.726593,104.592995 421.785278,109.194221 422.180847,113.677490 
	C422.504150,117.341621 419.227631,122.113556 424.644043,124.771957 
	C424.867462,124.881615 424.741516,126.715912 424.275665,127.053940 
	C421.094971,129.361862 422.056885,132.672760 422.021332,135.696289 
	C421.903839,145.688110 421.877289,155.681015 421.422607,165.876495 
z"/>
<path fill="#BCC2D8" opacity="1.000000" stroke="none" 
	d="
M619.633667,34.128090 
	C620.015320,73.948898 619.998047,113.962799 619.952820,154.435989 
	C619.615540,153.902588 619.036926,152.910187 619.035889,151.917191 
	C618.995361,113.208626 619.006653,74.500008 619.021912,35.791409 
	C619.022095,35.301304 619.160767,34.811253 619.633667,34.128090 
z"/>
<path fill="#BBC2D8" opacity="1.000000" stroke="none" 
	d="
M37.523651,41.282364 
	C37.934357,78.725723 37.954941,116.352936 37.941727,154.439758 
	C37.603386,154.064835 37.032555,153.230255 37.032600,152.395721 
	C37.034702,115.419220 37.087120,78.442719 37.523651,41.282364 
z"/>
<path fill="#070E33" opacity="1.000000" stroke="none" 
	d="
M469.536102,211.564011 
	C467.762665,213.743301 458.467468,214.952103 456.853363,213.493134 
	C456.419525,213.100967 456.082855,212.346024 456.088684,211.761490 
	C456.161774,204.463974 456.300629,197.167053 456.464478,189.870911 
	C456.468658,189.684372 456.949158,189.508514 458.320129,188.548996 
	C458.320129,196.197067 458.320129,203.151764 458.320129,210.572174 
	C462.722321,210.829880 466.062744,211.025452 469.536102,211.564011 
z"/>
<path fill="#081133" opacity="1.000000" stroke="none" 
	d="
M396.998779,204.931396 
	C396.998779,203.447784 396.998749,202.449448 396.998749,201.451126 
	C396.998749,192.692963 396.998779,192.692963 388.317719,189.498840 
	C395.259460,189.498840 400.838654,189.498840 406.417877,189.498840 
	C406.488068,189.821365 406.558258,190.143875 406.628448,190.466400 
	C404.730530,190.760193 402.832642,191.053970 400.669861,191.388763 
	C398.473480,198.528549 401.829865,206.450546 398.812042,213.531143 
	C398.207642,213.516647 397.603210,213.502151 396.998779,213.487656 
	C396.998779,210.797333 396.998779,208.107010 396.998779,204.931396 
z"/>
<path fill="#F3F1F1" opacity="1.000000" stroke="none" 
	d="
M423.427246,99.881790 
	C422.805237,95.885506 422.520660,91.728241 422.142151,87.220528 
	C424.328949,84.217796 426.609650,81.565498 428.890320,78.913208 
	C429.533875,79.195648 430.177399,79.478088 430.820923,79.760529 
	C429.715027,83.523827 428.746613,87.334946 427.459717,91.035309 
	C426.428650,94.000237 425.010803,96.830673 423.427246,99.881790 
z"/>
<path fill="#EBC1A9" opacity="1.000000" stroke="none" 
	d="
M420.549866,24.087635 
	C421.014191,24.157433 420.948120,24.631514 420.518860,24.830675 
	C419.059723,25.047569 418.029816,25.065304 416.999908,25.083036 
	C391.226837,25.138210 365.453735,25.193382 339.057312,25.263046 
	C339.626282,24.851849 340.817749,24.057659 342.011139,24.054665 
	C368.035828,23.989355 394.060730,24.012045 420.549866,24.087635 
z"/>
<path fill="#FFFFFF" opacity="1.000000" stroke="none" 
	d="
M338.256348,166.389328 
	C365.484894,165.961975 392.812531,165.967041 420.613861,165.996979 
	C420.423065,166.346832 419.758484,166.956039 419.094208,166.955780 
	C392.181274,166.945450 365.268372,166.880096 338.256348,166.389328 
z"/>
<path fill="#080E36" opacity="1.000000" stroke="none" 
	d="
M369.122162,190.634247 
	C370.067108,190.238739 371.696686,190.273438 371.696472,190.292297 
	C371.623230,197.834915 371.449097,205.376801 371.206329,212.916412 
	C371.199127,213.139664 370.450043,213.339035 369.045563,214.072403 
	C369.045563,205.995132 369.045563,198.526077 369.122162,190.634247 
z"/>
<path fill="#0A0E31" opacity="1.000000" stroke="none" 
	d="
M310.995117,201.986572 
	C311.102478,197.387497 311.209839,193.279602 311.317169,189.171707 
	C314.931183,193.026154 314.621643,210.577484 310.995117,214.650894 
	C310.995117,209.819656 310.995117,206.148712 310.995117,201.986572 
z"/>
<path fill="#F5F5F5" opacity="1.000000" stroke="none" 
	d="
M651.026978,212.279816 
	C648.808167,212.758362 646.601746,212.817886 644.395264,212.877426 
	C644.372253,210.985367 643.647644,208.593719 644.533936,207.349182 
	C645.335510,206.223602 648.183594,205.569427 649.617981,206.097122 
	C652.169617,207.035843 652.784607,209.379395 651.026978,212.279816 
z"/>
<path fill="#BEC1DB" opacity="1.000000" stroke="none" 
	d="
M706.456909,154.698669 
	C706.044312,135.926910 706.026672,116.982033 706.018127,97.576141 
	C706.351624,97.924591 706.958923,98.733994 706.959106,99.543541 
	C706.963562,117.870865 706.901489,136.198196 706.456909,154.698669 
z"/>
<path fill="#80859B" opacity="1.000000" stroke="none" 
	d="
M325.450439,154.647400 
	C325.134979,135.771820 325.177185,116.676033 325.564026,97.344223 
	C325.875092,116.214539 325.841553,135.320877 325.450439,154.647400 
z"/>
<path fill="#8182A0" opacity="1.000000" stroke="none" 
	d="
M675.221924,101.796547 
	C675.483643,103.292763 675.965820,105.233910 675.973206,107.176857 
	C676.032776,122.778099 676.002869,138.379669 675.974731,154.440765 
	C675.638428,154.400101 675.055542,153.899460 675.056152,153.399536 
	C675.077332,136.347092 675.153809,119.294708 675.221924,101.796547 
z"/>
<path fill="#7E849E" opacity="1.000000" stroke="none" 
	d="
M650.444580,154.694580 
	C650.176392,139.270126 650.286194,123.647316 650.588867,107.696777 
	C650.795410,123.078094 650.809021,138.787155 650.444580,154.694580 
z"/>
<path fill="#464C67" opacity="1.000000" stroke="none" 
	d="
M269.405792,154.628967 
	C269.147614,139.799805 269.224701,124.730339 269.603424,109.386147 
	C269.850372,124.203835 269.795715,139.296249 269.405792,154.628967 
z"/>
<path fill="#7F85A5" opacity="1.000000" stroke="none" 
	d="
M649.727173,33.608315 
	C640.240295,33.995728 630.562256,33.998116 620.411560,34.008247 
	C621.103882,33.678242 622.268433,33.050529 623.433777,33.048985 
	C632.134399,33.037422 640.835144,33.149776 649.727173,33.608315 
z"/>
<path fill="#F2F2F3" opacity="1.000000" stroke="none" 
	d="
M452.799530,70.005417 
	C452.920715,70.219627 452.837250,70.539764 452.423035,70.852676 
	C452.125397,70.508705 452.292938,70.264000 452.799530,70.005417 
z"/>
<path fill="#000000" opacity="1.000000" stroke="none" 
	d="
M69.001114,123.933167 
	C69.001709,119.451149 68.856812,115.448235 69.092751,111.467903 
	C69.162224,110.295776 70.348495,108.182800 70.956772,108.206406 
	C76.656029,108.427589 82.485397,108.408379 87.981796,109.707886 
	C92.001411,110.658241 94.713646,116.873161 93.926147,121.196121 
	C93.117050,125.637596 91.162079,129.313736 86.033714,130.138382 
	C82.792137,130.659622 79.593521,131.833740 76.355400,131.915741 
	C67.930008,132.129059 69.098083,132.729568 69.001114,123.933167 
z"/>
<path fill="#000000" opacity="1.000000" stroke="none" 
	d="
M82.732880,84.593994 
	C78.912636,84.828094 75.426132,85.111000 71.971367,84.892311 
	C70.944603,84.827316 69.199638,83.390106 69.159782,82.518715 
	C68.903183,76.908958 69.028603,71.281723 69.028603,65.106522 
	C74.330872,65.106522 79.102470,64.768684 83.801216,65.208725 
	C87.881721,65.590881 91.964188,70.190071 91.908455,74.071266 
	C91.845047,78.487076 90.297554,82.212227 85.298370,83.327660 
	C84.514008,83.502670 83.816460,84.066734 82.732880,84.593994 
z"/>
<path fill="#000000" opacity="1.000000" stroke="none" 
	d="
M388.991089,124.066101 
	C389.078094,130.751602 393.388855,134.232071 399.982910,132.924942 
	C401.411530,132.641769 402.818451,132.239746 404.253265,131.999084 
	C409.910156,131.050247 411.422272,132.186356 411.978424,137.989197 
	C412.168152,139.968292 412.013031,141.980606 412.013000,143.977737 
	C412.012909,151.969879 412.118896,152.440842 404.216431,154.225281 
	C395.529999,156.186737 386.737854,158.368637 377.642761,156.024460 
	C363.905579,152.483810 359.776001,145.613663 359.146149,132.251663 
	C358.493103,118.398201 359.000732,104.490044 359.000732,90.120956 
	C354.631042,90.120956 351.568512,90.120956 348.000977,90.120956 
	C348.000977,86.204124 347.778778,82.736946 348.107239,79.322746 
	C348.244049,77.900909 349.304138,76.325188 350.396271,75.301590 
	C351.661133,74.116112 353.397125,73.411415 354.974091,72.584717 
	C361.407776,69.211967 363.987366,63.091484 365.937836,56.718609 
	C367.818939,50.572258 369.508179,48.992302 375.827118,48.994556 
	C379.321960,48.995808 382.816803,49.004383 386.311584,49.022793 
	C386.634613,49.024498 386.957153,49.121517 388.006348,49.293026 
	C388.006348,53.242260 388.128418,57.327633 387.971771,61.402298 
	C387.817108,65.426552 389.531708,67.149269 393.568085,67.034790 
	C398.857727,66.884773 404.154816,66.998009 409.724243,66.998009 
	C409.724243,74.404877 409.724243,81.462288 409.724243,89.030273 
	C403.060181,89.365883 396.522491,89.695129 389.092590,90.189102 
	C388.134308,100.935722 388.050415,111.517609 388.045013,122.099525 
	C388.044678,122.754890 388.661438,123.410568 388.991089,124.066101 
z"/>
<path fill="#FFE5D4" opacity="1.000000" stroke="none" 
	d="
M389.010132,123.593521 
	C388.661438,123.410568 388.044678,122.754890 388.045013,122.099525 
	C388.050415,111.517609 388.134308,100.935722 388.636841,90.263428 
	C389.058594,101.155670 389.043884,112.138306 389.010132,123.593521 
z"/>
<path fill="#D59D75" opacity="1.000000" stroke="none" 
	d="
M417.232544,25.326458 
	C418.029816,25.065304 419.059723,25.047569 420.472778,25.065529 
	C420.855896,25.101221 420.900818,25.589100 420.845978,25.828497 
	C419.682495,25.901888 418.573853,25.735882 417.232544,25.326458 
z"/>
<path fill="#000000" opacity="1.000000" stroke="none" 
	d="
M483.338104,86.981659 
	C486.060455,90.342552 488.853668,93.652000 491.391113,97.147110 
	C491.633881,97.481514 490.301758,99.789001 489.667786,99.804222 
	C481.775482,99.993622 473.877045,99.928108 465.007538,99.928108 
	C466.112030,96.942001 466.880035,94.865631 468.202332,92.415237 
	C473.617126,90.354698 478.477631,88.668182 483.338104,86.981659 
z"/>
<path fill="#E1EBF3" opacity="1.000000" stroke="none" 
	d="
M482.978485,86.751686 
	C478.477631,88.668182 473.617126,90.354698 468.366333,92.117615 
	C470.574158,90.184029 472.944763,87.678024 475.852997,86.343994 
	C477.693787,85.499611 480.336060,86.402481 482.978485,86.751686 
z"/>
<path fill="#000000" opacity="1.000000" stroke="none" 
	d="
M459.310791,67.964920 
	C459.255493,67.613480 459.519501,67.222519 459.975616,66.667114 
	C459.988525,66.976906 459.809296,67.451149 459.310791,67.964920 
z"/>
<path fill="#000000" opacity="1.000000" stroke="none" 
	d="
M174.773315,131.317383 
	C172.998932,126.593750 170.587036,122.216431 170.214050,117.671776 
	C169.681290,111.180031 170.120377,104.486168 171.108063,98.025955 
	C172.123749,91.382576 176.602203,88.101944 182.808228,87.989998 
	C187.732269,87.901184 191.009735,90.894012 193.347412,96.789505 
	C197.136124,106.344360 196.621582,115.905632 193.636047,125.414871 
	C190.958344,133.943710 182.548569,136.596603 174.773315,131.317383 
z"/>
<path fill="#000000" opacity="1.000000" stroke="none" 
	d="
M277.987671,198.104706 
	C278.575745,195.450760 279.163971,193.276443 279.752197,191.102127 
	C282.343933,192.497238 285.919006,193.240845 287.351990,195.403687 
	C292.684662,203.452560 289.471893,208.911453 277.987854,210.779053 
	C277.987854,206.625168 277.987854,202.604752 277.987671,198.104706 
z"/>
<path fill="#000000" opacity="1.000000" stroke="none" 
	d="
M431.674316,201.917435 
	C429.908539,202.519348 428.249359,202.748108 425.912720,203.070267 
	C426.989288,199.357834 427.819885,196.493698 429.043579,192.273911 
	C430.247925,196.352539 431.014435,198.948410 431.674316,201.917435 
z"/>
</svg>